<?xml version="1.0" standalone="no"?>
<!DOCTYPE svg PUBLIC "-//W3C//DTD SVG 20010904//EN"
 "http://www.w3.org/TR/2001/REC-SVG-20010904/DTD/svg10.dtd">
<svg version="1.0" xmlns="http://www.w3.org/2000/svg"
 width="2330.000000pt" height="2267.000000pt" viewBox="0 0 2330.000000 2267.000000"
 preserveAspectRatio="xMidYMid meet">
<metadata>
Created by potrace 1.13, written by Peter Selinger 2001-2015
</metadata>
<g transform="translate(0.000000,2267.000000) scale(0.100000,-0.100000)"
fill="#000000" stroke="none">
<path d="M10850 21175 c-163 -31 -361 -117 -495 -217 -67 -49 -5123 -5090
-7350 -7328 -940 -945 -1004 -1011 -1057 -1099 -259 -424 -237 -972 53 -1366
60 -81 8155 -8185 8291 -8300 144 -122 299 -202 493 -253 92 -24 115 -26 295
-26 181 0 202 2 295 28 195 53 360 141 503 267 48 42 1921 1912 4163 4155
3179 3182 4087 4095 4126 4154 243 361 286 793 117 1186 -91 212 232 -120
-4273 4387 -2772 2774 -4144 4139 -4201 4183 -133 101 -276 170 -445 215 -105
27 -400 36 -515 14z m470 -1513 c192 -63 -113 232 3778 -3657 1954 -1952 3580
-3583 3612 -3623 116 -143 172 -302 173 -492 0 -176 -46 -324 -147 -463 -24
-34 -1650 -1667 -3613 -3628 -3755 -3753 -3601 -3603 -3750 -3664 -183 -74
-428 -72 -608 5 -139 60 -35 -42 -3738 3659 -1963 1961 -3588 3593 -3612 3626
-195 272 -201 627 -15 907 30 44 1134 1155 3589 3611 1950 1952 3572 3569
3603 3593 98 76 221 130 358 158 14 2 81 3 150 2 108 -3 138 -8 220 -34z"/>
<path d="M6443 14288 c5 -975 8 -1060 46 -1253 58 -287 230 -473 506 -546 100
-27 354 -37 474 -20 180 27 292 82 416 206 131 131 181 241 216 480 9 56 13
381 16 1083 l4 1002 -225 0 -226 0 0 -787 c-1 -835 -10 -1194 -34 -1280 -26
-95 -76 -156 -161 -195 -68 -31 -208 -32 -276 -2 -102 47 -159 128 -187 263
-13 64 -16 223 -19 1039 l-4 962 -275 0 -276 0 5 -952z"/>
<path d="M8490 13870 l0 -1370 210 0 210 0 0 977 c0 537 4 973 8 968 5 -6 60
-145 122 -310 62 -165 152 -403 200 -530 48 -126 125 -329 171 -450 45 -121
120 -317 165 -435 l82 -215 246 -3 246 -2 0 1370 0 1370 -215 0 -215 0 -2
-832 -3 -833 -42 115 c-23 63 -110 297 -193 520 -83 223 -203 546 -267 718
l-116 312 -303 0 -304 0 0 -1370z"/>
<path d="M10510 13870 l0 -1370 398 0 c410 0 511 6 645 41 301 76 507 328 617
750 41 162 59 298 66 504 13 386 -35 689 -146 924 -151 316 -355 455 -740 507
-73 9 -215 14 -472 14 l-368 0 0 -1370z m823 870 c84 -26 140 -68 186 -140 99
-153 131 -298 138 -628 9 -384 -21 -593 -107 -768 -78 -159 -179 -219 -387
-231 l-103 -6 0 903 0 903 105 -7 c58 -4 133 -15 168 -26z"/>
<path d="M12520 13870 l0 -1370 750 0 750 0 0 245 0 245 -477 2 -478 3 -3 333
-2 332 375 0 375 0 -2 238 -3 237 -373 3 -372 2 2 313 3 312 478 3 477 2 0
235 0 235 -750 0 -750 0 0 -1370z"/>
<path d="M14210 13871 l0 -1371 270 0 270 0 0 540 0 540 134 0 134 0 19 -62
c10 -35 84 -278 163 -540 l145 -478 299 0 c280 0 298 1 291 18 -4 9 -46 123
-95 252 -49 129 -147 390 -219 580 -121 319 -130 346 -114 358 160 113 243
232 295 422 21 77 23 105 22 290 0 238 -12 298 -90 460 -81 166 -238 298 -401
337 -57 13 -157 17 -595 20 l-528 5 0 -1371z m932 891 c53 -26 87 -67 126
-150 25 -54 27 -65 26 -197 0 -122 -3 -148 -23 -199 -29 -72 -77 -128 -139
-158 -42 -21 -64 -23 -214 -26 l-168 -4 0 382 0 382 173 -4 c155 -3 177 -5
219 -26z"/>
<path d="M5880 12186 c-194 -42 -310 -190 -372 -471 -20 -92 -18 -449 4 -546
36 -161 112 -308 193 -372 93 -74 221 -107 340 -88 217 33 350 202 389 494 5
36 4 37 -27 37 -18 1 -77 5 -132 9 -108 9 -115 7 -115 -40 0 -53 -41 -160 -74
-196 -28 -31 -40 -37 -87 -40 -45 -4 -60 -1 -89 19 -47 32 -76 78 -90 141 -22
101 -31 294 -20 442 18 259 70 355 194 355 94 0 159 -105 169 -275 2 -36 5
-40 27 -39 14 1 74 5 134 9 l109 7 -7 67 c-15 147 -71 298 -139 377 -87 99
-252 144 -407 110z"/>
<path d="M6892 12189 c-150 -29 -263 -137 -320 -304 -92 -270 -75 -720 34
-942 63 -127 156 -202 285 -229 86 -18 164 -13 257 17 133 44 238 186 283 384
29 129 37 430 15 575 -46 298 -167 461 -371 499 -67 13 -121 13 -183 0z m166
-279 c69 -43 95 -165 95 -460 0 -364 -41 -480 -170 -480 -33 0 -50 7 -77 30
-62 55 -86 183 -86 460 1 269 23 385 86 440 42 37 101 41 152 10z"/>
<path d="M8950 12187 c-82 -19 -129 -45 -188 -104 -161 -160 -171 -455 -21
-618 52 -57 87 -77 258 -154 74 -33 147 -73 163 -88 70 -67 53 -190 -32 -233
-46 -23 -116 -26 -164 -6 -44 18 -93 80 -113 144 -9 28 -21 52 -26 52 -9 0
-240 -71 -245 -75 -8 -7 50 -152 80 -202 90 -150 257 -221 452 -193 105 15
191 56 256 122 173 176 172 496 -2 653 -45 41 -72 55 -301 164 -82 39 -112 59
-127 84 -40 65 -14 161 50 187 43 18 120 8 158 -20 18 -13 44 -49 58 -80 15
-30 28 -57 30 -59 2 -2 55 18 119 45 77 32 115 53 115 64 -1 26 -45 124 -79
173 -37 55 -117 112 -186 132 -69 21 -191 27 -255 12z"/>
<path d="M12856 12190 c-177 -32 -312 -184 -366 -413 -42 -178 -45 -468 -6
-633 63 -262 192 -404 394 -435 197 -30 361 59 453 246 37 76 69 193 69 255
l0 28 -97 7 c-54 3 -113 7 -132 8 l-35 2 -13 -69 c-16 -91 -57 -172 -97 -197
-45 -27 -112 -25 -157 5 -70 48 -97 143 -106 371 -10 269 19 441 88 519 36 40
38 41 104 41 66 0 68 -1 101 -39 39 -46 62 -111 71 -209 l6 -69 31 6 c17 2 75
8 129 12 53 3 99 10 102 14 2 4 -2 50 -10 102 -25 167 -65 258 -150 344 -44
45 -76 67 -119 83 -67 25 -186 35 -260 21z"/>
<path d="M15064 12185 c-82 -18 -132 -45 -188 -100 -132 -133 -182 -329 -173
-684 4 -178 8 -219 30 -302 63 -238 180 -362 371 -390 252 -38 434 103 507
391 31 123 39 464 14 611 -47 284 -169 441 -369 478 -75 14 -115 13 -192 -4z
m180 -276 c71 -56 90 -152 90 -459 0 -246 -10 -333 -45 -401 -28 -57 -63 -79
-121 -79 -43 0 -55 5 -83 33 -43 43 -62 110 -76 262 -13 131 -6 393 12 490 22
119 69 175 149 175 33 0 55 -6 74 -21z"/>
<path d="M7610 11450 l0 -720 110 0 110 0 2 510 3 510 169 -448 c94 -246 181
-475 194 -509 l24 -63 129 0 129 0 0 720 0 720 -110 0 -110 0 0 -432 c0 -238
-4 -428 -8 -423 -5 6 -66 165 -137 355 -70 190 -141 380 -157 423 l-30 77
-159 0 -159 0 0 -720z"/>
<path d="M9530 12035 l0 -135 130 0 130 0 0 -585 0 -585 145 0 145 0 0 585 0
585 130 0 130 0 0 135 0 135 -405 0 -405 0 0 -135z"/>
<path d="M10400 11451 l0 -721 145 0 145 0 0 285 0 285 68 0 69 0 58 -192 c32
-106 71 -235 87 -285 l29 -93 158 0 158 0 -118 312 -119 312 50 44 c85 74 130
194 130 346 -1 185 -77 334 -206 397 -48 24 -55 24 -351 27 l-303 3 0 -720z
m505 463 c88 -58 97 -260 15 -339 -30 -29 -36 -30 -131 -33 l-99 -4 0 203 0
202 94 -6 c65 -4 102 -11 121 -23z"/>
<path d="M11410 11693 c0 -263 5 -521 10 -573 24 -251 118 -370 322 -406 132
-24 282 -4 367 50 44 28 114 103 136 146 44 85 48 139 52 713 l5 547 -120 0
-120 0 -4 -527 c-6 -555 -7 -572 -52 -621 -36 -41 -74 -55 -136 -50 -64 5
-111 32 -136 79 -27 53 -34 185 -34 657 l0 462 -145 0 -145 0 0 -477z"/>
<path d="M13380 12035 l0 -135 130 0 130 0 0 -585 0 -585 145 0 145 0 0 585 0
585 135 0 135 0 0 135 0 135 -410 0 -410 0 0 -135z"/>
<path d="M14250 11450 l0 -720 145 0 145 0 0 720 0 720 -145 0 -145 0 0 -720z"/>
<path d="M15790 11450 l0 -720 110 0 110 0 0 513 c1 423 3 508 14 487 7 -14
95 -244 197 -512 l184 -488 132 0 133 0 0 720 0 720 -115 0 -115 0 0 -437 -1
-438 -155 415 c-85 228 -157 425 -160 438 -6 22 -8 22 -170 22 l-164 0 0 -720z"/>
<path d="M10630 10039 c-71 -12 -160 -54 -235 -112 -33 -25 -246 -233 -474
-461 l-414 -415 -52 44 -51 44 -159 -159 -160 -160 270 -270 270 -270 157 157
c87 87 158 162 158 168 0 5 -18 28 -40 50 l-40 41 448 445 c425 423 451 447
518 477 134 61 314 66 467 15 31 -11 57 -18 57 -16 0 11 -95 126 -147 179
-185 188 -389 274 -573 243z"/>
<path d="M12305 9784 c-11 -2 -45 -9 -75 -15 -30 -6 -86 -27 -124 -47 -204
-106 -322 -340 -289 -569 l12 -78 -273 -273 -273 -274 -388 374 c-213 205
-393 374 -399 376 -6 1 -96 -83 -201 -187 l-189 -190 24 -28 c14 -15 73 -77
131 -138 227 -237 565 -591 581 -611 17 -20 12 -26 -237 -275 l-256 -254 -128
4 c-144 4 -204 -8 -304 -62 -69 -36 -162 -123 -205 -191 -56 -87 -77 -167 -77
-291 0 -199 -17 -202 231 46 l214 214 207 -208 208 -207 -214 -214 -214 -214
52 -11 c119 -25 275 -2 385 57 69 38 175 146 213 218 18 33 39 87 48 119 17
66 20 218 5 280 l-9 40 252 253 253 253 110 -113 c61 -62 220 -228 354 -368
290 -304 455 -475 604 -628 l110 -113 243 243 c134 134 242 246 241 250 -2 3
-277 268 -612 589 l-608 582 265 265 265 265 82 -13 c191 -30 363 28 496 166
114 119 170 297 144 459 -6 38 -13 72 -16 74 -3 3 -100 -90 -217 -206 l-212
-210 -204 209 -205 209 209 209 c115 115 207 211 204 214 -15 15 -166 29 -214
20z"/>
<path d="M9825 9560 l-189 -190 39 -40 39 -40 193 192 193 192 -37 38 c-20 21
-40 38 -43 38 -3 0 -91 -85 -195 -190z"/>
<path d="M10720 1527 c0 -13 -6 -14 -31 -7 -20 6 -49 5 -81 -2 -46 -11 -49
-13 -43 -37 8 -31 21 -40 48 -33 15 4 18 2 12 -8 -6 -10 -1 -12 23 -7 17 4 33
3 36 -2 13 -20 440 -33 606 -18 47 4 123 9 170 12 105 7 152 17 158 33 2 6 -9
17 -24 23 -16 5 -35 15 -42 22 -8 6 -34 12 -60 14 -25 1 -48 6 -51 11 -3 4
-62 2 -131 -4 -202 -20 -380 -16 -547 12 -35 5 -43 4 -43 -9z"/>
</g>
</svg>
